# AST/ASF file generated using VICON BodyLanguage
# -----------------------------------------------
:version 1.10
:name VICON
:units
  mass 1.0
  length 0.45
  angle deg
:documentation
   .ast/.asf automatically generated from VICON data using
   VICON BodyBuilder and BodyLanguage model FoxedUp or BRILLIANT.MOD
:root
   order TX TY TZ RX RY RZ
   axis XYZ
   position 0 0 0  
   orientation 0 0 0 
:bonedata
  begin
     id 1 
     name lhipjoint
     direction 0.710188 -0.616876 0.339259 
     length 2.5669 
     axis 0 0 0  XYZ
  end
  begin
     id 2 
     name lfemur
     direction 0.34202 -0.939693 0  
     length 7.12796  
     axis 0 0 20  XYZ
    dof rx ry rz
    limits (-160.0 20.0)
           (-70.0 70.0)
           (-60.0 70.0)
  end
  begin
     id 3 
     name ltibia
     direction 0.34202 -0.939693 0   
     length 7.58108   
     axis 0 0 20   XYZ
    dof rx
    limits (-10.0 170.0)
  end
  begin
     id 4 
     name lfoot
     direction 0.0669471 -0.183936 0.980656   
     length 2.17365   
     axis -90 7.62852e-016 20   XYZ
    dof rx rz
    limits (-45.0 90.0)
           (-70.0 20.0)
  end
  begin
     id 5 
     name ltoes
     direction 1.53508e-011 -4.21705e-011 1   
     length 1.09427   
     axis -90 7.62852e-016 20   XYZ
    dof rx
    limits (-90.0 20.0)
  end
  begin
     id 6 
     name rhipjoint
     direction -0.700191 -0.625589 0.34405   
     length 2.53115  
     axis 0 0 0  XYZ 
  end
  begin
     id 7 
     name rfemur
     direction -0.34202 -0.939693 0   
     length 7.33006   
     axis 0 0 -20   XYZ
    dof rx ry rz
    limits (-160.0 20.0)
           (-70.0 70.0)
           (-70.0 60.0)
  end
  begin
     id 8 
     name rtibia
     direction -0.34202 -0.939693 0   
     length 7.64926   
     axis 0 0 -20   XYZ
    dof rx
    limits (-10.0 170.0)
 end
 begin
     id 9 
     name rfoot
     direction -0.0688927 -0.189281 0.979503   
     length 2.20493  
     axis -90 -7.62852e-016 -20   XYZ
    dof rx rz
    limits (-45.0 90.0)
           (-20.0 70.0)
  end
  begin
     id 10 
     name rtoes
     direction -1.53567e-011 -4.21933e-011 1   
     length 1.10919   
     axis -90 -7.62852e-016 -20   XYZ
    dof rx
    limits (-90.0 20.0)
  end
  begin
     id 11 
     name lowerback
     direction -0.0167868 0.989873 -0.140959   
     length 2.14596   
     axis 0 0 0   XYZ
    dof rx ry rz
    limits (-20.0 45.0)
           (-30.0 30.0)
           (-30.0 30.0)
  end
  begin
     id 12 
     name upperback
     direction 0.0129109 0.998033 0.0613525   
     length 2.10457   
     axis 0 0 0   XYZ
    dof rx ry rz
    limits (-20.0 45.0)
           (-30.0 30.0)
           (-30.0 30.0)
  end
  begin
     id 13 
     name thorax
     direction 0.0177047 0.991119 0.131797   
     length 2.17652   
     axis 0 0 0   XYZ
    dof rx ry rz
    limits (-20.0 45.0)
           (-30.0 30.0)
           (-30.0 30.0)
  end
  begin
     id 14 
     name lowerneck
     direction -0.0336893 0.997548 0.0613464   
     length 1.8912   
     axis 0 0 0   XYZ
    dof rx ry rz
    limits (-20.0 45.0)
           (-30.0 30.0)
           (-30.0 30.0)
  end
  begin
     id 15 
     name upperneck
     direction 0.0435909 0.997179 -0.0611028   
     length 1.8829   
     axis 0 0 0   XYZ
    dof rx ry rz
    limits (-20.0 45.0)
           (-30.0 30.0)
           (-30.0 30.0)
  end
  begin
     id 16
     name head
     direction 0.0175076 0.999444 -0.0283782  
     length 1.93197  
     axis 0 0 0   XYZ
    dof rx ry rz
    limits (-20.0 45.0)
           (-30.0 30.0)
           (-30.0 30.0)
  end
  begin
     id 17 
     name lclavicle
     direction 0.919164 0.389875 0.0559876  
     length 3.60004  
     axis 0 0 0   XYZ
    dof ry rz
    limits (-20.0 10.0)
           (0.0 20.0)
  end
  begin
     id 18 
     name lhumerus
     direction 1 -4.48958e-011 6.89191e-027   
     length 5.43301   
     axis 180 -30 -90   XYZ
    dof rx ry rz
    limits (-60.0 90.0)
           (-90.0 90.0)
           (-90.0 90.0)
  end
  begin
     id 19
     name lradius
     direction 1 -4.4897e-011 3.24727e-027   
     length 3.15936   
     axis 180 -30 -90   XYZ
    dof rx
    limits (-10.0 170.0)
  end
  begin
     id 20
     name lwrist
     direction 1 -4.4897e-011 9.00228e-027   
     length 1.57968   
     axis -6.29373e-015 90 90   XYZ
    dof ry
    limits (-180.0 0.0)
 end
  begin
     id 21 
     name lhand
     direction 1 -4.48968e-011 1.80042e-026   
     length 0.712827   
     axis -1.14882e-014 90 90   XYZ
    dof rx rz
    limits (-90.0 90.0)
           (-45.0 45.0)
  end
  begin
     id 22 
     name lfingers
     direction 1 -4.49019e-011 3.60267e-026   
     length 0.574699   
     axis -2.29769e-014 90 90   XYZ
    dof rx
    limits (0.0 90.0)
  end
  begin
     id 23
     name lthumb
     direction 0.707107 -6.3498e-011 0.707107   
     length 0.825157   
     axis -90 45 5.37419e-014   XYZ
    dof rx rz
    limits (-45.0 45.0)
           (-45.0 45.0)
  end
  begin
     id 24 
     name rclavicle
     direction -0.890334 0.455305 -0.00132111   
     length 3.51494  
     axis 0 0 0   XYZ 
    dof ry rz
    limits (-10.0 20.0)
           (-20.0 0.0)
  end
  begin
     id 25 
     name rhumerus
     direction -1 -4.48967e-011 5.07175e-028  
     length 5.34194   
     axis 180 30 90   XYZ
    dof rx ry rz
    limits (-90.0 60.0)
           (-90.0 90.0)
           (-90.0 90.0)
  end
  begin
     id 26 
     name rradius
     direction -1 -4.48955e-011 3.30467e-027   
     length 3.19351   
     axis 180 30 90   XYZ
    dof rx
    limits (-10.0 170.0)
  end
  begin
     id 27 
     name rwrist
     direction -1 -4.48968e-011 9.00208e-027   
     length 1.59676   
     axis -6.29373e-015 -90 -90   XYZ
    dof ry
    limits (-180.0 0.0)
  end
  begin
     id 28
     name rhand
     direction -1 -4.49e-011 1.80099e-026   
     length 0.743862   
     axis -1.14882e-014 -90 -90   XYZ
    dof rx rz
    limits (-90.0 90.0)
           (-45.0 45.0)
  end
  begin
     id 29
     name rfingers
     direction -1 -4.49009e-011 3.6023e-026   
     length 0.599721   
     axis -2.29769e-014 -90 -90   XYZ
    dof rx
    limits (0.0 90.0)
  end
  begin
     id 30
     name rthumb
     direction -0.707107 -6.35025e-011 0.707107   
     length 0.861083   
     axis -90 -45 -5.37419e-014   XYZ
    dof rx rz
    limits (-45.0 45.0)
           (-45.0 45.0)
  end
:hierarchy
  begin
    root lhipjoint rhipjoint lowerback
    lhipjoint lfemur
    lfemur ltibia
    ltibia lfoot
    lfoot ltoes
    rhipjoint rfemur
    rfemur rtibia
    rtibia rfoot
    rfoot rtoes
    lowerback upperback
    upperback thorax
    thorax lowerneck lclavicle rclavicle
    lowerneck upperneck
    upperneck head
    lclavicle lhumerus
    lhumerus lradius
    lradius lwrist
    lwrist lhand lthumb
    lhand lfingers
    rclavicle rhumerus
    rhumerus rradius
    rradius rwrist
    rwrist rhand rthumb
    rhand rfingers
  end

#!OML:ASF H:\Martial Arts Walks\Project 1\Capture day 1\Session 1\male.ASF
:FULLY-SPECIFIED
:DEGREES
124
root -2.40525 15.2007 -37.0868 3.54435 -22.2454 -9.22
lowerback 10.5036 3.22507 4.75324
upperback -0.742412 5.08435 2.98554
thorax -6.53965 2.37296 -0.328202
lowerneck -3.50693 -1.4065 -4.14487
upperneck 10.141 -2.09978 4.93896
head 4.08423 -0.988296 2.31009
rclavicle 2.69741e-014 4.38569e-014
rhumerus -34.4703 7.17992 -79.4572
rradius 35.2754
rwrist 2.19784
rhand -14.1905 -38.404
rfingers 7.12502
rthumb 11.9454 -68.0432
lclavicle 2.69741e-014 4.38569e-014
lhumerus -32.7372 -2.19166 81.4213
lradius 37.7008
lwrist -6.028
lhand -27.0615 20.3286
lfingers 7.12502
lthumb -0.47944 50.3078
rfemur 1.11356 -2.52466 20.6647
rtibia 45.8682
rfoot -31.0037 -26.9713
rtoes -24.6284
lfemur -46.3527 11.8942 0.59582
ltibia 44.828
lfoot 5.53308 -1.93789
ltoes 3.63199
125
root -2.3823 15.2009 -37.035 3.77253 -22.4501 -9.14177
lowerback 10.5713 3.33443 4.62106
upperback -0.767786 5.21209 2.86459
thorax -6.60026 2.43625 -0.406427
lowerneck -3.44087 -1.34229 -4.04311
upperneck 9.76717 -2.01556 5.00439
head 3.93272 -0.941178 2.31267
rclavicle 2.61448e-014 -2.64632e-015
rhumerus -34.1582 7.1163 -79.627
rradius 35.2224
rwrist 2.37327
rhand -14.1387 -38.7182
rfingers 7.12502
rthumb 11.9954 -68.3544
lclavicle 2.61448e-014 -2.64632e-015
lhumerus -32.2634 -2.48285 81.3094
lradius 37.4914
lwrist -6.54673
lhand -27.1969 20.4266
lfingers 7.12502
lthumb -0.61027 50.4055
rfemur 0.777691 -2.99847 20.2681
rtibia 46.1675
rfoot -31.0815 -26.7844
rtoes -24.3491
lfemur -46.8214 12.5102 0.128955
ltibia 45.5251
lfoot 5.04593 -2.01672
ltoes 3.41101
126
root -2.35741 15.1849 -36.9861 4.07551 -22.7011 -9.14617
lowerback 10.6231 3.4082 4.50267
upperback -0.801751 5.29732 2.80641
thorax -6.66759 2.47909 -0.419655
lowerneck -3.35882 -1.21846 -4.0608
upperneck 9.37158 -1.84367 5.08901
head 3.76951 -0.854951 2.34728
rclavicle 5.81135e-015 5.15598e-016
rhumerus -33.803 7.39469 -79.8608
rradius 35.2127
rwrist 2.46196
rhand -14.3139 -38.1136
rfingers 7.12502
rthumb 11.8264 -67.7597
lclavicle 5.81135e-015 5.15598e-016
lhumerus -31.8826 -2.52311 81.1663
lradius 37.4247
lwrist -7.07267
lhand -27.1029 20.6676
lfingers 7.12502
lthumb -0.519441 50.6468
rfemur 0.37151 -3.34076 19.9848
rtibia 46.4948
rfoot -31.3819 -26.4261
rtoes -23.6534
lfemur -47.3957 13.0907 -0.178734
ltibia 46.2807
lfoot 4.67869 -2.14276
ltoes 3.47229
127
root -2.33313 15.178 -36.9375 4.34187 -22.9538 -9.14332
lowerback 10.725 3.50597 4.36172
upperback -0.817872 5.41343 2.74601
thorax -6.74529 2.53762 -0.430596
lowerneck -3.42767 -1.15108 -3.96517
upperneck 9.06027 -1.7413 5.04065
head 3.66508 -0.802344 2.31343
rclavicle -2.69757e-014 -9.29318e-015
rhumerus -33.4412 7.68483 -80.097
rradius 35.2561
rwrist 2.54539
rhand -14.1568 -38.4079
rfingers 7.12502
rthumb 11.9779 -68.0452
lclavicle -2.69757e-014 -9.29318e-015
lhumerus -31.4272 -2.66258 81.0421
lradius 37.3565
lwrist -7.61741
lhand -26.8231 21.4284
lfingers 7.12502
lthumb -0.249197 51.408
rfemur -0.024267 -3.79353 19.6871
rtibia 46.7817
rfoot -30.9092 -26.8163
rtoes -24.47
lfemur -47.8867 13.6567 -0.482302
ltibia 46.996
lfoot 4.20588 -2.25505
ltoes 3.30716
128
root -2.30928 15.1678 -36.8902 4.61292 -23.2628 -9.30098
lowerback 10.8303 3.63583 4.43221
upperback -0.779897 5.59504 2.67784
thorax -6.74492 2.62245 -0.574822
lowerneck -3.47561 -1.08803 -3.85996
upperneck 8.68734 -1.65167 5.0765
head 3.53796 -0.753045 2.30528
rclavicle 1.84808e-015 -1.96797e-014
rhumerus -33.0201 7.92811 -80.3679
rradius 35.2996
rwrist 2.5982
rhand -14.0471 -38.5346
rfingers 7.12502
rthumb 12.0837 -68.1657
lclavicle 1.84808e-015 -1.96797e-014
lhumerus -30.888 -2.95288 80.9122
lradius 37.2905
lwrist -8.25481
lhand -27.2019 21.014
lfingers 7.12502
lthumb -0.615111 50.9929
rfemur -0.341348 -4.26953 19.5342
rtibia 47.0571
rfoot -30.8909 -26.7934
rtoes -24.4182
lfemur -48.302 14.2581 -0.575537
ltibia 47.7268
lfoot 3.75196 -2.41773
ltoes 3.36641
129
root -2.28458 15.16 -36.8417 4.90484 -23.5411 -9.4221
lowerback 10.8749 3.72078 4.4186
upperback -0.808204 5.71066 2.67368
thorax -6.79728 2.67757 -0.593987
lowerneck -3.31781 -0.982782 -3.8535
upperneck 8.32458 -1.50046 5.05836
head 3.37301 -0.681377 2.29848
rclavicle -4.7025e-015 1.09332e-015
rhumerus -32.7003 8.50162 -80.6592
rradius 35.4048
rwrist 2.57421
rhand -13.9977 -38.1858
rfingers 7.12502
rthumb 12.1313 -67.8141
lclavicle -4.7025e-015 1.09332e-015
lhumerus -30.5473 -3.09817 80.8482
lradius 37.1576
lwrist -9.13045
lhand -28.0441 20.0741
lfingers 7.12502
lthumb -1.42854 50.0491
rfemur -0.674101 -4.96758 19.3209
rtibia 47.3006
rfoot -30.7391 -26.8345
rtoes -24.2204
lfemur -48.7063 14.7944 -0.720188
ltibia 48.367
lfoot 3.29546 -2.53844
ltoes 3.30219
130
root -2.25846 15.1549 -36.7934 5.21239 -23.7952 -9.61565
lowerback 10.8561 3.78286 4.54973
upperback -0.772777 5.80475 2.64989
thorax -6.73019 2.72029 -0.702623
lowerneck -3.26884 -0.885322 -3.77317
upperneck 7.98887 -1.35796 4.98558
head 3.23767 -0.612146 2.25973
rclavicle 9.32486e-014 2.71838e-014
rhumerus -32.2353 9.12869 -80.9689
rradius 35.4705
rwrist 2.52513
rhand -13.9723 -38.4553
rfingers 7.12502
rthumb 12.1558 -68.0821
lclavicle 9.32486e-014 2.71838e-014
lhumerus -30.0818 -3.23051 80.7145
lradius 37.1765
lwrist -9.47737
lhand -28.3684 19.1995
lfingers 7.12502
lthumb -1.74172 49.1721
rfemur -0.951552 -5.77091 19.1687
rtibia 47.4925
rfoot -30.8449 -26.6835
rtoes -23.8469
lfemur -49.092 15.3185 -0.804699
ltibia 48.9951
lfoot 2.84335 -2.67666
ltoes 3.10867
131
root -2.23499 15.1539 -36.7478 5.50002 -23.9763 -9.69494
lowerback 10.8244 3.90153 4.61983
upperback -0.745775 5.96184 2.56306
thorax -6.66072 2.79522 -0.852259
lowerneck -3.32642 -0.872909 -3.6173
upperneck 7.75802 -1.33258 4.87786
head 3.16369 -0.598378 2.1928
rclavicle -2.71465e-015 1.07344e-014
rhumerus -31.7612 9.67515 -81.2401
rradius 35.5752
rwrist 2.5476
rhand -12.0894 -39.8365
rfingers 7.12502
rthumb 13.9709 -69.347
lclavicle -2.71465e-015 1.07344e-014
lhumerus -29.5167 -3.72345 80.6394
lradius 37.2796
lwrist -9.28136
lhand -28.2616 18.9214
lfingers 7.12502
lthumb -1.63853 48.8949
rfemur -1.29563 -6.73678 18.8846
rtibia 47.6716
rfoot -30.8671 -26.3998
rtoes -23.4898
lfemur -49.5104 15.7656 -1.02047
ltibia 49.56
lfoot 2.44261 -2.77498
ltoes 2.94006
132
root -2.20782 15.1495 -36.699 5.81733 -24.1587 -10.0574
lowerback 10.8452 3.94633 4.96383
upperback -0.722527 6.06656 2.59023
thorax -6.61182 2.83567 -1.02876
lowerneck -3.27688 -0.783431 -3.60202
upperneck 7.51188 -1.20513 4.86447
head 3.06325 -0.536351 2.18681
rclavicle -4.16951e-014 -7.35503e-015
rhumerus -31.2979 10.4483 -81.5585
rradius 35.6388
rwrist 2.64855
rhand -13.961 -38.4029
rfingers 7.12502
rthumb 12.1668 -68.0291
lclavicle -4.16951e-014 -7.35503e-015
lhumerus -29.0652 -3.91741 80.6007
lradius 37.3858
lwrist -9.30456
lhand -28.5778 18.8896
lfingers 7.12502
lthumb -1.94392 48.8605
rfemur -1.46163 -7.46527 18.9228
rtibia 47.7879
rfoot -30.7883 -26.3911
rtoes -23.0631
lfemur -49.8607 16.2684 -0.948179
ltibia 50.1501
lfoot 2.0887 -2.92266
ltoes 2.93299
133
root -2.18441 15.1459 -36.6542 6.09572 -24.3258 -10.2438
lowerback 10.8327 3.99876 5.09378
upperback -0.700968 6.15003 2.58672
thorax -6.5642 2.87333 -1.11407
lowerneck -3.26799 -0.699278 -3.54166
upperneck 7.30155 -1.0832 4.78981
head 2.98183 -0.477209 2.15223
rclavicle -1.37658e-014 1.28216e-014
rhumerus -30.7885 11.269 -81.8465
rradius 35.7304
rwrist 2.83631
rhand -13.0405 -39.5564
rfingers 7.12502
rthumb 13.0542 -69.1279
lclavicle -1.37658e-014 1.28216e-014
lhumerus -28.6068 -4.13206 80.562
lradius 37.5597
lwrist -9.1002
lhand -28.6452 19.2489
lfingers 7.12502
lthumb -2.00902 49.2192
rfemur -1.71593 -8.05822 18.8662
rtibia 47.8987
rfoot -30.4614 -26.5815
rtoes -23.5793
lfemur -50.2683 16.7618 -1.0771
ltibia 50.7178
lfoot 1.82905 -3.01247
ltoes 3.01372
134
root -2.1624 15.1418 -36.6123 6.34017 -24.4351 -10.392
lowerback 10.8766 4.03179 5.18821
upperback -0.725411 6.21068 2.58681
thorax -6.60254 2.89783 -1.17929
lowerneck -3.22361 -0.610076 -3.51593
upperneck 7.17927 -0.957444 4.72711
head 2.92453 -0.416911 2.12902
rclavicle -4.28381e-014 -2.97183e-014
rhumerus -30.4115 12.2474 -82.1354
rradius 35.9334
rwrist 2.99418
rhand -12.4167 -40.5255
rfingers 7.12502
rthumb 13.6554 -70.0576
lclavicle -4.28381e-014 -2.97183e-014
lhumerus -28.1936 -4.38334 80.5452
lradius 37.72
lwrist -8.80657
lhand -28.7813 19.4444
lfingers 7.12502
lthumb -2.14052 49.4134
rfemur -1.89131 -8.51845 18.8047
rtibia 47.9745
rfoot -30.4776 -26.4151
rtoes -23.3624
lfemur -50.7119 17.2067 -1.25824
ltibia 51.2925
lfoot 1.65091 -3.10734
ltoes 2.85631
135
root -2.14327 15.1389 -36.5735 6.57757 -24.5251 -10.5713
lowerback 10.9488 4.06847 5.25973
upperback -0.748336 6.27644 2.60248
thorax -6.65907 2.92522 -1.21884
lowerneck -3.17101 -0.539234 -3.43993
upperneck 7.0367 -0.858639 4.65851
head 2.85966 -0.368924 2.09336
rclavicle -2.03382e-014 -2.62396e-014
rhumerus -30.1031 13.2164 -82.4139
rradius 36.2265
rwrist 3.26803
rhand -12.5533 -40.2595
rfingers 7.12502
rthumb 13.5238 -69.8004
lclavicle -2.03382e-014 -2.62396e-014
lhumerus -27.7394 -4.60364 80.512
lradius 38.019
lwrist -8.09363
lhand -28.3192 20.7139
lfingers 7.12502
lthumb -1.69417 50.6869
rfemur -2.05155 -8.92745 18.7934
rtibia 48.052
rfoot -30.4814 -26.3644
rtoes -22.837
lfemur -51.1546 17.6582 -1.41294
ltibia 51.8386
lfoot 1.4862 -3.12502
ltoes 2.85233
136
root -2.12685 15.1367 -36.5361 6.74119 -24.5931 -10.6658
lowerback 11.0426 4.10782 5.25434
upperback -0.749319 6.33465 2.59628
thorax -6.71014 2.95173 -1.23903
lowerneck -3.19144 -0.498141 -3.33574
upperneck 6.91514 -0.797688 4.55397
head 2.81686 -0.339223 2.04002
rclavicle -3.05134e-014 7.05686e-015
rhumerus -29.6943 14.1648 -82.6942
rradius 36.4287
rwrist 3.80346
rhand -12.9537 -39.5816
rfingers 7.12502
rthumb 13.1378 -69.1478
lclavicle -3.05134e-014 7.05686e-015
lhumerus -27.2744 -4.85823 80.4766
lradius 38.1424
lwrist -7.97604
lhand -29.1034 19.6498
lfingers 7.12502
lthumb -2.45161 49.6155
rfemur -2.16527 -9.2987 18.6958
rtibia 48.1168
rfoot -30.5586 -26.1306
rtoes -22.7103
lfemur -51.5515 18.0939 -1.64947
ltibia 52.353
lfoot 1.39818 -3.15316
ltoes 3.18759
137
root -2.11127 15.1322 -36.5023 6.92805 -24.5915 -10.8406
lowerback 11.1237 4.09852 5.30445
upperback -0.754093 6.33924 2.65804
thorax -6.76307 2.95101 -1.20961
lowerneck -3.12931 -0.404393 -3.40794
upperneck 6.74816 -0.665285 4.57176
head 2.74391 -0.275846 2.06098
rclavicle 6.06914e-014 1.87852e-014
rhumerus -29.3327 15.2284 -82.8948
rradius 36.7579
rwrist 4.12032
rhand -13.3536 -39.3489
rfingers 7.12502
rthumb 12.7523 -68.9394
lclavicle 6.06914e-014 1.87852e-014
lhumerus -26.8891 -5.00144 80.4979
lradius 38.3618
lwrist -7.91559
lhand -29.0495 20.1697
lfingers 7.12502
lthumb -2.39955 50.136
rfemur -2.24488 -9.56734 18.7201
rtibia 48.1683
rfoot -30.9239 -25.6804
rtoes -21.7925
lfemur -51.9794 18.495 -1.8188
ltibia 52.8369
lfoot 1.29766 -3.1753
ltoes 3.33839
